<svg version="1.1" id="Layer_1" xmlns="http://www.w3.org/2000/svg" xmlns:xlink="http://www.w3.org/1999/xlink" x="0px" y="0px"
	 width="100%" viewBox="0 0 361 78" enable-background="new 0 0 361 78" xml:space="preserve">
<path fill="#FFFFFF" opacity="1.000000" stroke="none" 
	d="
M1.000000,28.000000 
	C1.000000,19.009338 1.000000,10.018678 1.000000,1.048435 
	C121.333344,1.048435 241.666687,1.048435 362.000000,1.048435 
	C362.000000,12.085474 362.000000,23.074080 361.597656,34.390354 
	C351.315582,34.535427 341.415771,33.943180 331.568512,34.424915 
	C328.690063,34.565727 324.800110,37.113213 323.364838,39.673695 
	C317.161255,50.740574 324.045990,61.968655 336.578125,61.996422 
	C345.052063,62.015198 353.526031,62.000000 362.000000,62.000000 
	C362.000000,67.659599 362.000000,73.319191 362.000000,79.000000 
	C250.979111,79.000000 139.958206,79.000000 28.468658,78.531624 
	C28.000000,76.733414 28.180746,75.374336 27.971098,74.078423 
	C26.441885,64.625809 28.741179,57.345573 38.568718,53.652412 
	C40.371346,52.974995 42.654770,50.695126 42.795845,48.995529 
	C43.305790,42.852001 42.996536,36.640472 42.996536,30.454617 
	C42.325298,30.294476 41.654060,30.134335 40.982822,29.974194 
	C39.654808,33.874531 38.326447,37.774750 36.999050,41.675297 
	C36.696533,42.564243 36.671799,43.835190 36.051937,44.281860 
	C32.131710,47.106750 28.127609,49.825500 24.028479,52.382568 
	C23.276453,52.851692 21.696064,52.824646 20.951681,52.335823 
	C16.900314,49.675365 12.938826,46.867161 9.081433,43.932327 
	C8.395238,43.410252 7.997492,42.031277 8.056881,41.085030 
	C8.425533,35.211308 5.289644,31.313662 1.000000,28.000000 
M17.780544,33.996166 
	C18.180408,34.906796 18.809774,35.786797 18.936180,36.733921 
	C19.285252,39.349449 19.424154,41.993027 19.685442,45.091293 
	C25.460096,40.337585 30.198818,36.302357 35.085018,32.454391 
	C39.443924,29.021683 40.354187,24.033646 37.179302,19.624962 
	C34.115139,25.591991 26.302666,30.926147 19.216171,31.279682 
	C23.065386,27.765509 27.053188,24.388653 30.717100,20.690874 
	C33.339973,18.043760 33.212875,14.964520 31.603817,12.597850 
	C26.987930,15.863854 22.838755,19.162476 18.345854,21.896172 
	C11.049360,26.335711 9.681390,32.120392 15.246182,36.989731 
	C15.837218,35.925861 16.418474,34.879601 17.780544,33.996166 
M64.864395,39.623894 
	C64.363892,41.124371 63.620556,42.590393 63.401993,44.130875 
	C61.894054,54.759190 65.195068,61.573666 77.140259,61.958912 
	C84.129303,62.184311 91.135857,62.131054 98.124657,61.901855 
	C99.740967,61.848850 101.316887,60.564251 102.911392,59.846378 
	C101.381050,59.230938 99.863312,58.123425 98.318222,58.083843 
	C90.993553,57.896206 83.660828,58.057343 76.332138,57.981644 
	C70.534279,57.921757 67.726715,55.444054 67.297325,49.999958 
	C76.965706,49.999958 86.615791,50.079227 96.261917,49.919838 
	C97.820732,49.894081 99.362007,48.807152 100.911392,48.210743 
	C99.335930,47.473835 97.772949,46.131943 96.182953,46.099133 
	C86.543648,45.900234 76.898178,46.000023 67.224243,46.000023 
	C67.828392,40.369320 70.162971,38.061344 75.295418,38.017559 
	C83.124054,37.950771 90.953796,37.977150 98.782837,38.012856 
	C101.330719,38.024475 103.525345,37.822578 102.727005,34.001678 
	C93.137306,34.001678 83.636154,33.607269 74.201004,34.223473 
	C71.054909,34.428947 68.077797,37.221859 64.864395,39.623894 
M258.973816,51.950565 
	C258.982513,50.121998 259.029144,48.292686 258.993225,46.464996 
	C258.860596,39.723591 255.965546,35.152615 249.522125,34.390461 
	C242.319565,33.538513 234.846649,33.431900 227.670227,34.369598 
	C221.541687,35.170376 217.975235,39.895870 218.947571,45.092556 
	C219.278168,46.859379 218.994492,48.740120 219.001038,50.568771 
	C219.021683,56.343311 220.998520,60.042007 226.649872,60.796211 
	C234.035004,61.781799 241.626740,61.525860 249.116165,61.318878 
	C254.381668,61.173359 257.440277,57.786228 258.973816,51.950565 
M154.999908,58.020744 
	C154.867859,50.390701 154.758286,42.760033 154.544876,35.132263 
	C154.532776,34.699547 153.669266,34.290649 152.237167,33.003433 
	C149.786591,40.932930 151.778809,48.320171 150.788162,55.396759 
	C150.627014,55.438892 150.406082,55.571609 150.313202,55.510311 
	C140.199844,48.834946 130.108307,42.126369 119.972839,35.484833 
	C118.955933,34.818481 117.007439,33.879475 116.649506,34.234547 
	C115.747017,35.129822 115.097969,36.682968 115.068817,37.988560 
	C114.920143,44.647793 114.928909,51.313511 115.058006,57.973560 
	C115.085091,59.371181 115.849388,60.754509 116.273979,62.144421 
	C116.875526,62.103775 117.477074,62.063129 118.078621,62.022484 
	C120.203094,55.057491 118.218704,47.669132 119.246925,40.226036 
	C120.423943,40.887508 121.559845,41.434349 122.600327,42.124966 
	C131.632416,48.120003 140.627060,54.171749 149.682938,60.130459 
	C151.729340,61.476963 154.317627,64.007515 154.999908,58.020744 
M184.992020,39.727894 
	C184.994690,45.549702 184.841812,51.378448 185.101212,57.188797 
	C185.172760,58.791191 186.473587,60.338711 187.210373,61.911404 
	C187.806900,60.364796 188.870407,58.832481 188.918259,57.269073 
	C189.114090,50.871929 188.999969,44.465290 188.999969,37.999851 
	C194.076218,37.999851 198.412231,38.183262 202.716980,37.896923 
	C204.156174,37.801193 205.515549,36.505344 206.911407,35.758080 
	C205.520630,35.172104 204.136536,34.097202 202.738007,34.078087 
	C192.260666,33.934887 181.779053,33.916851 171.302917,34.098476 
	C169.886307,34.123035 168.492767,35.477928 167.088547,36.216827 
	C168.470993,36.811165 169.815735,37.788479 171.242874,37.929058 
	C175.784851,38.376472 180.357529,38.512432 184.992020,39.727894 
M289.556580,62.000000 
	C294.885284,61.999966 300.220673,62.146957 305.538391,61.905159 
	C307.022888,61.837650 308.455139,60.622082 309.911377,59.933182 
	C308.410614,59.288811 306.923126,58.126614 305.406799,58.087635 
	C297.918274,57.895149 290.411499,58.244751 282.932007,57.921486 
	C277.072083,57.668221 273.300629,54.265469 273.922089,48.800156 
	C274.333344,45.183456 274.146729,41.473053 273.923187,37.823257 
	C273.840240,36.469063 272.888458,35.168079 272.332916,33.842831 
	C271.889038,33.996540 271.445129,34.150249 271.001251,34.303963 
	C271.001251,40.781788 270.661560,47.287865 271.196564,53.721203 
	C271.369751,55.803669 273.450562,58.784168 275.333557,59.452381 
	C279.522644,60.938957 284.137817,61.224773 289.556580,62.000000 
M13.051302,12.445020 
	C11.516068,13.646184 9.871756,14.732658 8.465837,16.069790 
	C4.064017,20.256245 3.924357,22.451326 7.484455,27.623781 
	C13.070094,22.832336 18.809383,18.201077 24.196222,13.190869 
	C28.128597,9.533430 27.987078,6.792157 25.431711,3.422745 
	C21.486784,6.315720 17.583012,9.178514 13.051302,12.445020 
z"/>
<path fill="#182857" opacity="1.000000" stroke="none" 
	d="
M1.000000,28.468578 
	C5.289644,31.313662 8.425533,35.211308 8.056881,41.085030 
	C7.997492,42.031277 8.395238,43.410252 9.081433,43.932327 
	C12.938826,46.867161 16.900314,49.675365 20.951681,52.335823 
	C21.696064,52.824646 23.276453,52.851692 24.028479,52.382568 
	C28.127609,49.825500 32.131710,47.106750 36.051937,44.281860 
	C36.671799,43.835190 36.696533,42.564243 36.999050,41.675297 
	C38.326447,37.774750 39.654808,33.874531 40.982822,29.974194 
	C41.654060,30.134335 42.325298,30.294476 42.996536,30.454617 
	C42.996536,36.640472 43.305790,42.852001 42.795845,48.995529 
	C42.654770,50.695126 40.371346,52.974995 38.568718,53.652412 
	C28.741179,57.345573 26.441885,64.625809 27.971098,74.078423 
	C28.180746,75.374336 28.000000,76.733414 28.000000,78.531624 
	C24.638712,79.000000 21.277426,79.000000 17.458069,78.531670 
	C16.999960,73.084991 17.064913,68.105186 16.953176,63.129345 
	C16.925989,61.918674 16.706867,60.157211 15.913218,59.609646 
	C11.048020,56.252975 5.992282,53.172474 1.000000,50.000000 
	C1.000000,42.979053 1.000000,35.958103 1.000000,28.468578 
z"/>
<path fill="#FFFFFF" opacity="1.000000" stroke="none" 
	d="
M362.000000,37.000000 
	C362.000000,44.020947 362.000000,51.041897 361.597656,58.390434 
	C359.614014,58.478683 358.034668,58.049202 356.451019,58.032650 
	C349.295258,57.957859 342.136780,58.092319 334.982300,57.970955 
	C329.125214,57.871605 327.066986,55.995033 326.177765,50.294235 
	C337.399475,49.076298 348.859192,51.299976 359.992462,47.998692 
	C348.852478,44.701302 337.386902,46.924866 326.183472,45.706608 
	C326.310883,40.998619 329.136322,38.100864 333.837708,38.028248 
	C340.826141,37.920307 347.819000,38.083622 354.806671,37.954098 
	C357.209534,37.909557 359.602509,37.333332 362.000000,37.000000 
z"/>
<path fill="#182857" opacity="1.000000" stroke="none" 
	d="
M362.000000,36.666668 
	C359.602509,37.333332 357.209534,37.909557 354.806671,37.954098 
	C347.819000,38.083622 340.826141,37.920307 333.837708,38.028248 
	C329.136322,38.100864 326.310883,40.998619 326.183472,45.706608 
	C337.386902,46.924866 348.852478,44.701302 359.992462,47.998692 
	C348.859192,51.299976 337.399475,49.076298 326.177765,50.294235 
	C327.066986,55.995033 329.125214,57.871605 334.982300,57.970955 
	C342.136780,58.092319 349.295258,57.957859 356.451019,58.032650 
	C358.034668,58.049202 359.614014,58.478683 361.597656,58.859013 
	C362.000000,59.750000 362.000000,60.500000 362.000000,61.625000 
	C353.526031,62.000000 345.052063,62.015198 336.578125,61.996422 
	C324.045990,61.968655 317.161255,50.740574 323.364838,39.673695 
	C324.800110,37.113213 328.690063,34.565727 331.568512,34.424915 
	C341.415771,33.943180 351.315582,34.535427 361.597656,34.859013 
	C362.000000,35.444447 362.000000,35.888889 362.000000,36.666668 
z"/>
<path fill="#FFFFFF" opacity="1.000000" stroke="none" 
	d="
M1.000000,50.468658 
	C5.992282,53.172474 11.048020,56.252975 15.913218,59.609646 
	C16.706867,60.157211 16.925989,61.918674 16.953176,63.129345 
	C17.064913,68.105186 16.999960,73.084991 17.000000,78.531670 
	C11.719079,79.000000 6.438159,79.000000 1.000000,79.000000 
	C1.000000,69.646233 1.000000,60.291775 1.000000,50.468658 
z"/>
<path fill="#182857" opacity="1.000000" stroke="none" 
	d="
M64.943916,39.227921 
	C68.077797,37.221859 71.054909,34.428947 74.201004,34.223473 
	C83.636154,33.607269 93.137306,34.001678 102.727005,34.001678 
	C103.525345,37.822578 101.330719,38.024475 98.782837,38.012856 
	C90.953796,37.977150 83.124054,37.950771 75.295418,38.017559 
	C70.162971,38.061344 67.828392,40.369320 67.224243,46.000023 
	C76.898178,46.000023 86.543648,45.900234 96.182953,46.099133 
	C97.772949,46.131943 99.335930,47.473835 100.911392,48.210747 
	C99.362007,48.807152 97.820732,49.894081 96.261917,49.919838 
	C86.615791,50.079227 76.965706,49.999958 67.297325,49.999958 
	C67.726715,55.444054 70.534279,57.921757 76.332138,57.981644 
	C83.660828,58.057343 90.993553,57.896206 98.318222,58.083843 
	C99.863312,58.123425 101.381050,59.230938 102.911392,59.846382 
	C101.316887,60.564251 99.740967,61.848850 98.124657,61.901855 
	C91.135857,62.131054 84.129303,62.184311 77.140259,61.958912 
	C65.195068,61.573666 61.894054,54.759190 63.401993,44.130875 
	C63.620556,42.590393 64.363892,41.124371 64.943916,39.227921 
z"/>
<path fill="#182857" opacity="1.000000" stroke="none" 
	d="
M258.850647,52.363579 
	C257.440277,57.786228 254.381668,61.173359 249.116165,61.318878 
	C241.626740,61.525860 234.035004,61.781799 226.649872,60.796211 
	C220.998520,60.042007 219.021683,56.343311 219.001038,50.568771 
	C218.994492,48.740120 219.278168,46.859379 218.947571,45.092556 
	C217.975235,39.895870 221.541687,35.170376 227.670227,34.369598 
	C234.846649,33.431900 242.319565,33.538513 249.522125,34.390461 
	C255.965546,35.152615 258.860596,39.723591 258.993225,46.464996 
	C259.029144,48.292686 258.982513,50.121998 258.850647,52.363579 
M246.090881,57.999825 
	C254.057663,56.705200 255.661346,54.443016 254.998932,45.433968 
	C254.617004,40.239368 251.446976,38.001511 244.466232,38.000160 
	C239.980804,37.999294 235.495239,37.978634 231.009964,38.005222 
	C224.916061,38.041348 222.013092,40.767746 222.046143,46.974800 
	C222.088257,54.880138 225.056000,57.587799 230.718781,57.938248 
	C235.518097,58.235260 240.350357,57.999817 246.090881,57.999825 
z"/>
<path fill="#182857" opacity="1.000000" stroke="none" 
	d="
M154.999298,58.463776 
	C154.317627,64.007515 151.729340,61.476963 149.682938,60.130459 
	C140.627060,54.171749 131.632416,48.120003 122.600327,42.124966 
	C121.559845,41.434349 120.423943,40.887508 119.246925,40.226036 
	C118.218704,47.669132 120.203094,55.057491 118.078621,62.022484 
	C117.477074,62.063129 116.875526,62.103775 116.273979,62.144421 
	C115.849388,60.754509 115.085091,59.371181 115.058006,57.973560 
	C114.928909,51.313511 114.920143,44.647793 115.068817,37.988560 
	C115.097969,36.682968 115.747017,35.129822 116.649506,34.234547 
	C117.007439,33.879475 118.955933,34.818481 119.972839,35.484833 
	C130.108307,42.126369 140.199844,48.834946 150.313202,55.510311 
	C150.406082,55.571609 150.627014,55.438892 150.795593,55.397537 
	C151.778809,48.320171 149.786591,40.932930 152.237167,33.003433 
	C153.669266,34.290649 154.532776,34.699547 154.544876,35.132263 
	C154.758286,42.760033 154.867859,50.390701 154.999298,58.463776 
z"/>
<path fill="#182857" opacity="1.000000" stroke="none" 
	d="
M184.955170,39.248314 
	C180.357529,38.512432 175.784851,38.376472 171.242874,37.929058 
	C169.815735,37.788479 168.470993,36.811165 167.088547,36.216827 
	C168.492767,35.477928 169.886307,34.123035 171.302917,34.098476 
	C181.779053,33.916851 192.260666,33.934887 202.738007,34.078087 
	C204.136536,34.097202 205.520630,35.172104 206.911407,35.758087 
	C205.515549,36.505344 204.156174,37.801193 202.716980,37.896923 
	C198.412231,38.183262 194.076218,37.999851 188.999969,37.999851 
	C188.999969,44.465290 189.114090,50.871929 188.918259,57.269073 
	C188.870407,58.832481 187.806900,60.364796 187.210373,61.911407 
	C186.473587,60.338711 185.172760,58.791191 185.101212,57.188797 
	C184.841812,51.378448 184.994690,45.549702 184.955170,39.248314 
z"/>
<path fill="#182857" opacity="1.000000" stroke="none" 
	d="
M289.067963,62.000000 
	C284.137817,61.224773 279.522644,60.938957 275.333557,59.452381 
	C273.450562,58.784168 271.369751,55.803669 271.196564,53.721203 
	C270.661560,47.287865 271.001251,40.781788 271.001251,34.303963 
	C271.445129,34.150249 271.889038,33.996540 272.332916,33.842831 
	C272.888458,35.168079 273.840240,36.469063 273.923187,37.823257 
	C274.146729,41.473053 274.333344,45.183456 273.922089,48.800156 
	C273.300629,54.265469 277.072083,57.668221 282.932007,57.921486 
	C290.411499,58.244751 297.918274,57.895149 305.406799,58.087635 
	C306.923126,58.126614 308.410614,59.288811 309.911377,59.933182 
	C308.455139,60.622082 307.022888,61.837650 305.538391,61.905159 
	C300.220673,62.146957 294.885284,61.999966 289.067963,62.000000 
z"/>
<path fill="#182857" opacity="1.000000" stroke="none" 
	d="
M19.115517,31.958452 
	C26.302666,30.926147 34.115139,25.591991 37.179302,19.624962 
	C40.354187,24.033646 39.443924,29.021683 35.085018,32.454391 
	C30.198818,36.302357 25.460096,40.337585 19.685442,45.091293 
	C19.424154,41.993027 19.285252,39.349449 18.936180,36.733921 
	C18.809774,35.786797 18.180408,34.906796 17.446089,33.599899 
	C17.779594,32.788574 18.447556,32.373512 19.115517,31.958452 
z"/>
<path fill="#182857" opacity="1.000000" stroke="none" 
	d="
M13.365271,12.243164 
	C17.583012,9.178514 21.486784,6.315720 25.431711,3.422745 
	C27.987078,6.792157 28.128597,9.533430 24.196222,13.190869 
	C18.809383,18.201077 13.070094,22.832336 7.484455,27.623781 
	C3.924357,22.451326 4.064017,20.256245 8.465837,16.069790 
	C9.871756,14.732658 11.516068,13.646184 13.365271,12.243164 
z"/>
<path fill="#182857" opacity="1.000000" stroke="none" 
	d="
M19.165844,31.619068 
	C18.447556,32.373512 17.779594,32.788574 17.055681,33.518486 
	C16.418474,34.879601 15.837218,35.925861 15.246182,36.989731 
	C9.681390,32.120392 11.049360,26.335711 18.345854,21.896172 
	C22.838755,19.162476 26.987930,15.863854 31.603817,12.597850 
	C33.212875,14.964520 33.339973,18.043760 30.717100,20.690874 
	C27.053188,24.388653 23.065386,27.765509 19.165844,31.619068 
z"/>
<path fill="#FFFFFF" opacity="1.000000" stroke="none" 
	d="
M245.629456,57.999908 
	C240.350357,57.999817 235.518097,58.235260 230.718781,57.938248 
	C225.056000,57.587799 222.088257,54.880138 222.046143,46.974800 
	C222.013092,40.767746 224.916061,38.041348 231.009964,38.005222 
	C235.495239,37.978634 239.980804,37.999294 244.466232,38.000160 
	C251.446976,38.001511 254.617004,40.239368 254.998932,45.433968 
	C255.661346,54.443016 254.057663,56.705200 245.629456,57.999908 
z"/>
</svg>
