<svg xml:space="preserve" xmlns="http://www.w3.org/2000/svg" viewBox="0 0 391.119 247.038"><path fill="#4E52E0" d="M299.62 102.812c-3.846 4.844-7.235 9.62-11.141 13.927-3.229 3.559-3.044 6.525-.157 10.046 5.167 6.3 10.104 12.79 15.212 19.138 11.886 14.773 23.516 29.765 35.81 44.191 13.919 16.333 26.727 33.629 41.958 48.831 1.526 1.524 3.027 3.135 4.789 4.342 1.6 1.097 3.28 2.435 5.028 3.64-2.894-.004-2.602-.045-5.877.111-9.237-.312-5.744-.278-9.567-.283-20.495-.028-40.992-.165-61.486-.025-4.246.029-7.331-1.247-9.847-4.61-17.82-23.821-35.696-47.601-53.552-71.396-.1-.133-.162-.295-.269-.42-2.997-3.51-3.657-9.924-8.199-10.752-4.136-.754-8.924 1.864-13.384 3.138-9.497 2.713-19.126 4.189-29.042 4.085-16.328-.17-32.66-.072-48.989-.1-1.498-.003-2.996-.087-4.493-.144-7.987-.305-13.203-4.208-17.449-11.111-7.74-12.584-16.431-24.584-24.754-36.808-.905-1.33-1.654-2.961-3.743-2.984-1.648 1.646-.99 3.76-.992 5.658-.054 38.159-.053 76.318-.069 114.476-.003 7.674-.056 7.753-7.863 7.664-14.309-.163-28.62-.615-42.923-.443-5.472.066-6.637-2.007-6.629-7.016.104-60.488-.29-120.978.281-181.46.101-10.747-4.303-17.28-11.583-23.696C20.348 21.696 11.168 11.315.549 2.471.234 2.207.19 1.618 0 1.125 1.567-.502 3.505.168 5.21.167c66.653-.03 133.31-.47 199.957.213 27.82.285 49.09 12.992 60.945 39.262 1.14 2.528.654 4.42-.858 6.438-13.77 18.372-27.485 36.787-43.347 53.464-4.39 4.615-4.404 7.815.437 11.35 8.795-11.19 17.677-22.35 26.404-33.631 13.22-17.089 26.46-34.166 39.433-51.44 5.643-7.515 10.453-15.636 16.89-22.586 1.731-1.868 3.33-3.002 5.896-3.006 23.16-.038 46.32-.138 69.48-.199.282 0 .565.284 1.478.774-3.838 4.573-7.657 8.992-11.332 13.527-13.715 16.922-27.048 34.168-41.18 50.734-10.349 12.13-19.207 25.38-29.792 37.745M99.438 87.936c-.006 6.326.103 12.655-.064 18.977-.097 3.692.947 5.333 5.079 5.312 29.133-.146 58.267-.066 87.4-.055 5.234.002 9.608-1.936 13.563-5.366 6.497-5.635 8.778-12.528 8.933-21.13.362-20.106-7.169-27.216-24.402-27.726-27.944-.826-55.93-.26-83.899-.248-5.762.002-6.514.783-6.568 6.761-.069 7.491-.029 14.983-.042 23.475z"/><path fill="#4E52E0" d="M264.685 232.993c3.938 4.864 7.647 9.451 11.331 14.009-2.173 2.27-4.29 1.58-6.181 1.583-22.83.037-45.662-.077-68.492.075-4.18.027-6.918-.968-9.473-4.658-15.632-22.58-31.585-44.937-47.41-67.382-.45-.638-.674-1.435-.951-2.044 1.14-1.842 2.781-1.43 4.196-1.433 22.33-.041 44.662.027 66.992-.12 3.503-.023 5.515 1.608 7.406 4.128a12469.775 12469.775 0 0 0 33.943 45.042c2.71 3.578 5.602 7.02 8.639 10.8z"/></svg>
